# xmcd
#
# Track frame offsets: 
#        150
#        17733
#        31001
#        45163
#        60210
#        76307
#        85518
#        99290
#        116935
#        139193
#        151657
#
# Disc length: 4049 seconds
#
# Revision: 0
# Processed by: cddbd v1.5.2PL0 Copyright (c) Steve Scherf et al.
# Submitted via: ExactAudioCopy v1.0b4
#
DISCID=6c0fcf0b
DTITLE=Blues Band, The - Official Blues Band Bootleg Album (LP)
DYEAR=1979
DGENRE=Blues
TTITLE0=Talk To Me Baby
TTITLE1=Flatfoot Sam
TTITLE2=Two Bones Ans A Pick
TTITLE3=Someday Baby
TTITLE4=Boom Boom (Out Go The Lights)
TTITLE5=Come On In
TTITLE6=Death Letter
TTITLE7=Going Home
TTITLE8=I Don' t Know
TTITLE9=Diddy Wah Diddy
TTITLE10=Official Blues Band Bootleg Album (LP)
EXTD=
EXTT0=
EXTT1=
EXTT2=
EXTT3=
EXTT4=
EXTT5=
EXTT6=
EXTT7=
EXTT8=
EXTT9=
EXTT10=
PLAYORDER=
